#!OML:ASF H:\Male1\Project 1\Capture day 1\Session 1\Male1.ASF
:FULLY-SPECIFIED
:DEGREES
158
root 8.21845 13.2749 1.81501 185.26 4.68695 -177.529
lowerback 23.0422 0.450293 0.624811
upperback 6.59972 2.1043 1.26494
thorax -5.6345 1.54944 0.385268
lowerneck -0.236105 4.5557 12.4696
upperneck -24.5918 6.72394 -15.8134
head -6.30114 4.64454 -7.8147
rclavicle -9.93923e-017 4.96962e-015
rhumerus -22.3065 40.2988 -64.9251
rradius 77.4774
rwrist -30.1413
rhand -18.7911 -6.06196
rfingers 7.12502
rthumb 7.50677 -35.9088
lclavicle -9.93923e-017 4.96962e-015
lhumerus -24.2439 -4.60511 84.3965
lradius 64.2231
lwrist 42.4812
lhand -38.2892 32.3532
lfingers 7.12502
lthumb -11.3182 62.0278
rfemur -44.0387 5.33 27.4054
rtibia 76.6708
rfoot -29.8163 -27.8234
rtoes -30.9163
lfemur -40.0644 -10.7369 -16.4103
ltibia 75.9859
lfoot -35.3363 17.5402
ltoes -15.1226
159
root 8.2421 13.4069 1.76819 184.739 4.78315 -177.048
lowerback 22.2116 0.541564 0.975334
upperback 6.23596 2.19924 1.45849
thorax -5.6045 1.55066 0.386897
lowerneck -0.441819 4.6303 12.5713
upperneck -23.2483 6.71077 -15.5011
head -5.8503 4.49515 -7.60764
rclavicle 3.97569e-016 -1.39149e-014
rhumerus -16.6619 41.9903 -59.9505
rradius 76.4863
rwrist -25.9674
rhand -15.9398 -6.48327
rfingers 7.12502
rthumb 10.2583 -36.2131
lclavicle 3.97569e-016 -1.39149e-014
lhumerus -22.4792 -4.42998 83.874
lradius 67.8182
lwrist 45.6295
lhand -39.2947 33.2445
lfingers 7.12502
lthumb -12.2878 62.8635
rfemur -41.8797 5.19711 27.9542
rtibia 74.3891
rfoot -30.0612 -26.7354
rtoes -28.291
lfemur -38.1785 -10.4098 -16.0372
ltibia 74.092
lfoot -34.7848 17.4939
ltoes -14.0672
160
root 8.26747 13.6135 1.71424 184.153 5.07819 -176.707
lowerback 21.3408 0.644779 1.15019
upperback 5.8399 2.25286 1.55748
thorax -5.58395 1.52918 0.399302
lowerneck -0.476208 4.76157 12.7345
upperneck -21.8734 6.78709 -15.1136
head -5.41478 4.3779 -7.40064
rclavicle 2.8625e-014 3.71727e-014
rhumerus -10.7341 43.6923 -55.0258
rradius 75.0608
rwrist -21.5237
rhand -13.3607 -6.8146
rfingers 7.12502
rthumb 12.7455 -36.4056
lclavicle 2.8625e-014 3.71727e-014
lhumerus -21.0742 -4.53665 83.192
lradius 71.7882
lwrist 47.8093
lhand -39.2787 32.8154
lfingers 7.12502
lthumb -12.2724 62.4353
rfemur -39.1331 4.80143 28.2563
rtibia 71.1068
rfoot -29.3692 -25.1992
rtoes -26.1542
lfemur -35.5536 -9.74399 -15.7891
ltibia 71.0309
lfoot -33.6689 17.1908
ltoes -13.315
161
root 8.29408 13.8959 1.64918 183.551 5.58359 -176.384
lowerback 20.3921 0.733441 1.33726
upperback 5.41382 2.27298 1.5542
thorax -5.54428 1.48841 0.306223
lowerneck -0.348527 4.94109 13.0023
upperneck -20.4747 6.94466 -14.6656
head -4.99364 4.2927 -7.20557
rclavicle 1.81888e-014 7.55382e-015
rhumerus -4.92949 45.4903 -50.4849
rradius 73.4609
rwrist -17.4703
rhand -11.4832 -6.98988
rfingers 7.12502
rthumb 14.555 -36.4592
lclavicle 1.81888e-014 7.55382e-015
lhumerus -20.1707 -5.00777 82.2327
lradius 75.8908
lwrist 48.5287
lhand -38.5494 31.3227
lfingers 7.12502
lthumb -11.5691 60.9834
rfemur -35.7995 4.0716 28.4916
rtibia 66.7646
rfoot -27.2808 -23.6229
rtoes -25.6932
lfemur -32.2222 -8.71393 -15.517
ltibia 66.7954
lfoot -31.8733 16.6227
ltoes -12.9085
162
root 8.3227 14.2534 1.57021 183.009 6.27457 -176.133
lowerback 19.2932 0.822376 1.52995
upperback 4.96159 2.27422 1.43051
thorax -5.44158 1.43544 0.0910618
lowerneck -0.0757849 5.15045 13.2986
upperneck -19.1376 7.17799 -14.0899
head -4.61734 4.24872 -6.99182
rclavicle 2.43511e-015 -2.87244e-014
rhumerus 0.209395 47.2406 -46.6844
rradius 71.9859
rwrist -14.139
rhand -10.4475 -6.86435
rfingers 7.12502
rthumb 15.5526 -36.259
lclavicle 2.43511e-015 -2.87244e-014
lhumerus -19.8044 -5.87143 80.9601
lradius 79.9404
lwrist 47.7629
lhand -37.5982 29.2794
lfingers 7.12502
lthumb -10.6517 58.9894
rfemur -32.0071 3.00753 28.567
rtibia 61.4289
rfoot -24.1716 -21.5823
rtoes -25.4531
lfemur -28.2963 -7.37928 -15.2665
ltibia 61.4076
lfoot -29.1318 15.9001
ltoes -13.0502
163
root 8.35517 14.682 1.47626 182.508 7.09582 -175.978
lowerback 18.0715 0.911022 1.67161
upperback 4.52537 2.25954 1.22564
thorax -5.24714 1.3774 -0.172419
lowerneck 0.214801 5.38747 13.5427
upperneck -17.8084 7.47034 -13.4099
head -4.25061 4.24657 -6.74448
rclavicle 5.05658e-015 -5.19325e-015
rhumerus 4.25279 48.8142 -43.9059
rradius 70.8331
rwrist -11.7513
rhand -10.3346 -6.45123
rfingers 7.12502
rthumb 15.6614 -35.8373
lclavicle 5.05658e-015 -5.19325e-015
lhumerus -20.0073 -7.01578 79.4084
lradius 83.8669
lwrist 45.664
lhand -36.8533 27.4831
lfingers 7.12502
lthumb -9.93314 57.2287
rfemur -27.7777 1.7604 28.4383
rtibia 55.182
rfoot -20.1067 -19.1382
rtoes -25.0242
lfemur -23.8861 -5.91683 -15.0418
ltibia 55.0214
lfoot -25.2802 14.9309
ltoes -13.1558
